<svg xmlns="http://www.w3.org/2000/svg" width="242" height="32" fill="none"><path fill="#fff" fill-rule="evenodd" d="M241.442 15.442V2.497h-17.021l-2.128 2.296v12.11h5.32v3.758h2.34l2.553-2.714h6.383zm-12.553-.21h-3.404a.423.423 0 0 1-.426-.417V4.585c0-.23.192-.418.426-.418h13.617c.234 0 .425.188.425.418v7.934c0 .114-.042.219-.122.297l-2.34 2.297a.44.44 0 0 1-.304.12h-3.909l-3.298 2.224a.43.43 0 0 1-.436.026.41.41 0 0 1-.229-.371z" clip-rule="evenodd"/><path fill="#fff" d="M235.272 11.58V7.402h-1.702v4.176zm-4.255 0V7.402h-1.702v4.176z"/><path fill="#FF1313" d="M164.092 0h-14.62c-2.864 0-5.19 2.367-5.19 5.28v7.434c0 2.919 2.326 5.28 5.19 5.28h14.615c2.869 0 5.19-2.367 5.19-5.28V5.28C169.282 2.367 166.956 0 164.092 0m-3.514 9.364-6.838 3.317a.272.272 0 0 1-.391-.254V5.584c0-.21.217-.342.396-.248l6.839 3.526c.206.105.2.403-.006.502"/><path fill="#fff" d="m163.779 12.08 10 10h-6l-4 4z"/><path stroke="#fff" stroke-width="3" d="m167.172 20.522 4 10"/><path fill="#fff" fill-rule="evenodd" d="M89.696 4.246a9 9 0 0 1-2.475.635c.89-.5 1.573-1.292 1.895-2.234a9 9 0 0 1-2.738.98 4.44 4.44 0 0 0-3.145-1.276c-2.38 0-4.311 1.81-4.311 4.04q0 .476.112.92c-3.582-.169-6.758-1.777-8.884-4.22a3.83 3.83 0 0 0-.583 2.031c0 1.4.761 2.638 1.917 3.362a4.5 4.5 0 0 1-1.952-.506v.052c0 1.957 1.485 3.59 3.457 3.96a4.696 4.696 0 0 1-1.946.07c.548 1.603 2.14 2.772 4.026 2.805a9.02 9.02 0 0 1-5.353 1.728q-.522 0-1.028-.056a12.8 12.8 0 0 0 6.607 1.815c7.928 0 12.263-6.156 12.263-11.493q0-.263-.013-.523a8.5 8.5 0 0 0 2.151-2.09M6.136 18.989H2.045V9.495H0V6.222h2.045V4.258C2.045 1.589 3.2 0 6.478 0h2.73v3.273H7.503c-1.278 0-1.362.458-1.362 1.312l-.005 1.637h3.092l-.362 3.273h-2.73z" clip-rule="evenodd"/></svg>