<svg xmlns="http://www.w3.org/2000/svg" width="31" height="30" fill="none"><path fill="#FFB548" fill-rule="evenodd" d="M15.063 30c8.319 0 15.063-6.716 15.063-15S23.382 0 15.063 0 0 6.716 0 15c0 1.528.23 3.003.656 4.392.109.02.285.064.541.139l-.4-6.273c0-.115.194-.17.373-.22.098-.029.19-.055.244-.09.145-.09 3.137.997 3.297 1.07l3.825 1.723a4.93 4.93 0 0 1 3.332-.703l3.477-4.222c.043-3.37 2.804-6.084 6.198-6.089 3.172.034 5.802 2.44 6.102 5.574.32 3.389-2.18 6.393-5.588 6.715l-5.792 4.116a5.12 5.12 0 0 1-3.404 3.87c-2.688.905-5.608-.53-6.514-3.206l-2.014-.664c-.15-.048-2.89-1.183-3.633-1.6A15.06 15.06 0 0 0 15.063 30m9.58-19.112a3.09 3.09 0 0 1-3.1 3.081 3.09 3.09 0 0 1-3.099-3.08 3.09 3.09 0 0 1 3.1-3.081 3.09 3.09 0 0 1 3.099 3.08m-1.031 0a2.06 2.06 0 0 1-2.068 2.056 2.06 2.06 0 0 1-2.068-2.056c0-1.135.926-2.055 2.068-2.055s2.068.92 2.068 2.056M9.869 22.904c.416.202.876.308 1.341.308q.53-.002 1.036-.168a3.074 3.074 0 0 0 .33-5.685.52.52 0 0 0-.693.236.51.51 0 0 0 .238.688q.05.021.101.048a2.045 2.045 0 0 1 .886 2.768 2.07 2.07 0 0 1-2.784.88.52.52 0 0 0-.693.237.51.51 0 0 0 .238.688" clip-rule="evenodd"/></svg>