<svg xmlns="http://www.w3.org/2000/svg" width="19" height="14" fill="none"><path fill="#fff" d="M18.025 1.657a7.7 7.7 0 0 1-2.124.557A3.58 3.58 0 0 0 17.526.258a7.6 7.6 0 0 1-2.348.858A3.77 3.77 0 0 0 12.478 0c-2.04 0-3.697 1.582-3.697 3.534q0 .417.096.805C5.803 4.192 3.08 2.785 1.255.647a3.4 3.4 0 0 0-.5 1.777c0 1.225.652 2.307 1.644 2.94a3.8 3.8 0 0 1-1.675-.441v.045c0 1.712 1.275 3.14 2.966 3.465a3.9 3.9 0 0 1-1.67.06c.47 1.405 1.837 2.426 3.454 2.456a7.65 7.65 0 0 1-4.592 1.512q-.443 0-.882-.05A10.83 10.83 0 0 0 5.669 14c6.802 0 10.52-5.386 10.52-10.057 0-.152 0-.305-.01-.457a7.4 7.4 0 0 0 1.845-1.829z" opacity=".3"/></svg>