<svg xmlns="http://www.w3.org/2000/svg" width="31" height="28" fill="none"><path fill="#FFB548" d="M23.535.166a.94.94 0 0 0-1.004-.04A41 41 0 0 0 17.48 3.56a.942.942 0 0 0-.064 1.412c3.32 3.159 7.921 12.846 8.977 17.3C24.104 18.404 19 9.302 15.66 6.191a.94.94 0 0 0-1.279 0c-3.344 3.112-8.431 12.22-10.72 16.093C4.717 17.83 9.306 8.131 12.627 4.972a.934.934 0 0 0-.059-1.412A41.4 41.4 0 0 0 7.516.125a.94.94 0 0 0-1.003.041A14.99 14.99 0 0 0 0 12.51c0 3.598 1.297 7.067 3.661 9.775a14.9 14.9 0 0 0 11.36 5.228c4.395 0 8.537-1.905 11.371-5.234a14.85 14.85 0 0 0 3.65-9.77c0-4.922-2.435-9.534-6.507-12.342"/></svg>