<svg width="68" height="68" viewBox="0 0 68 68" fill="none" xmlns="http://www.w3.org/2000/svg">
<circle cx="34" cy="34" r="34" fill="#020202"/>
<circle cx="34" cy="34" r="34" fill="#020202"/>
<circle cx="34" cy="34" r="34" fill="#5AFF92"/>
<path d="M68 34C68 41.4796 65.5336 48.7506 60.9828 54.6865C56.432 60.6224 50.0508 64.892 42.8276 66.834C35.6045 68.776 27.9426 68.282 21.0286 65.4284C14.1147 62.5748 8.33472 57.521 4.58395 51.0498C0.833172 44.5786 -0.679037 37.0511 0.281562 29.6334C1.24216 22.2157 4.62196 15.3218 9.89742 10.0195C15.1729 4.71716 22.0496 1.30241 29.4623 0.304166C36.875 -0.694081 44.4101 0.779892 50.9002 4.49777L34 34H68Z" fill="#020202"/>
<path d="M68 34C68 41.4796 65.5336 48.7506 60.9828 54.6865C56.432 60.6224 50.0508 64.892 42.8276 66.834C35.6045 68.776 27.9426 68.282 21.0286 65.4284C14.1147 62.5748 8.33472 57.521 4.58395 51.0498C0.833172 44.5786 -0.679037 37.0511 0.281562 29.6334C1.24216 22.2157 4.62196 15.3218 9.89742 10.0195C15.1729 4.71716 22.0496 1.30241 29.4623 0.304166C36.875 -0.694081 44.4101 0.779892 50.9002 4.49777L34 34H68Z" fill="#020202"/>
<path d="M68 34C68 41.4796 65.5336 48.7506 60.9828 54.6865C56.432 60.6224 50.0508 64.892 42.8276 66.834C35.6045 68.776 27.9426 68.282 21.0286 65.4284C14.1147 62.5748 8.33472 57.521 4.58395 51.0498C0.833172 44.5786 -0.679037 37.0511 0.281562 29.6334C1.24216 22.2157 4.62196 15.3218 9.89742 10.0195C15.1729 4.71716 22.0496 1.30241 29.4623 0.304166C36.875 -0.694081 44.4101 0.779892 50.9002 4.49777L34 34H68Z" fill="#350741"/>
<path d="M68 34C68 41.4796 65.5336 48.7506 60.9828 54.6865C56.432 60.6224 50.0508 64.892 42.8276 66.834C35.6045 68.776 27.9426 68.282 21.0286 65.4284C14.1147 62.5748 8.33472 57.521 4.58395 51.0498C0.833172 44.5786 -0.679037 37.0511 0.281562 29.6334C1.24216 22.2157 4.62196 15.3218 9.89742 10.0195C15.1729 4.71716 22.0496 1.30241 29.4623 0.304166C36.875 -0.694081 44.4101 0.779892 50.9002 4.49777L34 34H68Z" fill="#C72400"/>
<path d="M68 34C68 41.5878 65.4618 48.9576 60.7895 54.9362C56.1171 60.9148 49.5792 65.1587 42.2162 66.9923C34.8533 68.826 27.0886 68.1439 20.1581 65.0548C13.2276 61.9657 7.52953 56.6471 3.97097 49.9455L34 34H68Z" fill="#020202"/>
<path d="M68 34C68 41.5878 65.4618 48.9576 60.7895 54.9362C56.1171 60.9148 49.5792 65.1587 42.2162 66.9923C34.8533 68.826 27.0886 68.1439 20.1581 65.0548C13.2276 61.9657 7.52953 56.6471 3.97097 49.9455L34 34H68Z" fill="#020202"/>
<path d="M68 34C68 41.5878 65.4618 48.9576 60.7895 54.9362C56.1171 60.9148 49.5792 65.1587 42.2162 66.9923C34.8533 68.826 27.0886 68.1439 20.1581 65.0548C13.2276 61.9657 7.52953 56.6471 3.97097 49.9455L34 34H68Z" fill="#350741"/>
<path d="M68 34C68 41.5878 65.4618 48.9576 60.7895 54.9362C56.1171 60.9148 49.5792 65.1587 42.2162 66.9923C34.8533 68.826 27.0886 68.1439 20.1581 65.0548C13.2276 61.9657 7.52953 56.6471 3.97097 49.9455L34 34H68Z" fill="white"/>
</svg>
