<svg width="93" height="33" viewBox="0 0 93 33" fill="none" xmlns="http://www.w3.org/2000/svg">
<path d="M35.6426 13.6289H33.1582V12.2871H41.5137V13.6289H39.0293V21H35.6426V13.6289ZM42.7852 12.293H47.8066C48.4551 12.293 49.0215 12.3613 49.5059 12.498C49.9941 12.6348 50.4004 12.8262 50.7246 13.0723C51.0527 13.3184 51.2988 13.6133 51.4629 13.957C51.627 14.3008 51.709 14.6797 51.709 15.0938C51.709 15.6055 51.5879 16.0605 51.3457 16.459C51.1035 16.8535 50.7441 17.168 50.2676 17.4023L52.0957 21.0059H48.2695L46.8867 17.8418H46.1719V21H42.7852V12.293ZM46.377 16.7812C46.6543 16.7812 46.9023 16.7422 47.1211 16.6641C47.3398 16.5859 47.5254 16.4766 47.6777 16.3359C47.8301 16.1914 47.9473 16.0215 48.0293 15.8262C48.1113 15.627 48.1523 15.4102 48.1523 15.1758C48.1523 14.9414 48.1113 14.7266 48.0293 14.5312C47.9473 14.332 47.8301 14.1621 47.6777 14.0215C47.5254 13.877 47.3398 13.7656 47.1211 13.6875C46.9023 13.6094 46.6543 13.5703 46.377 13.5703H46.1777L46.1719 16.7812H46.377ZM56.127 14.4902L55.1191 12.293H58.6875L62.9531 21.0059H59.127L58.4824 19.6113H55.0488L54.4102 21.0059H52.9277L56.127 14.4902ZM57.8672 18.2695L56.7656 15.8789L55.6699 18.2695H57.8672ZM63.6387 16.6523C63.6387 16.2383 63.6914 15.8398 63.7969 15.457C63.9062 15.0703 64.0645 14.7109 64.2715 14.3789C64.4785 14.0469 64.7324 13.7441 65.0332 13.4707C65.334 13.1973 65.6758 12.9629 66.0586 12.7676C66.4453 12.5723 66.8711 12.4219 67.3359 12.3164C67.8008 12.207 68.3008 12.1523 68.8359 12.1523C69.1797 12.1523 69.5078 12.1738 69.8203 12.2168C70.1367 12.2598 70.4336 12.3203 70.7109 12.3984C70.9883 12.4727 71.2441 12.5605 71.4785 12.6621C71.7168 12.7598 71.9316 12.8633 72.123 12.9727L71.6191 13.957C71.4004 13.8516 71.1504 13.7637 70.8691 13.6934C70.5918 13.6191 70.3027 13.582 70.002 13.582C69.5996 13.582 69.2266 13.6543 68.8828 13.7988C68.5391 13.9434 68.2422 14.1484 67.9922 14.4141C67.7422 14.6797 67.5449 15.002 67.4004 15.3809C67.2598 15.7559 67.1895 16.1777 67.1895 16.6465C67.1895 17.1113 67.2598 17.5332 67.4004 17.9121C67.541 18.2871 67.7344 18.6094 67.9805 18.8789C68.2305 19.1445 68.5254 19.3516 68.8652 19.5C69.209 19.6445 69.5801 19.7168 69.9785 19.7168C70.2598 19.7168 70.541 19.6836 70.8223 19.6172C71.1035 19.5469 71.3613 19.4551 71.5957 19.3418L72.0996 20.3262C71.9082 20.4395 71.6953 20.5449 71.4609 20.6426C71.2266 20.7402 70.9727 20.8281 70.6992 20.9062C70.4258 20.9805 70.1328 21.0391 69.8203 21.082C69.5078 21.125 69.1797 21.1465 68.8359 21.1465C68.0352 21.1465 67.3125 21.0293 66.668 20.7949C66.0273 20.5566 65.4824 20.2344 65.0332 19.8281C64.584 19.418 64.2383 18.9414 63.9961 18.3984C63.7578 17.8516 63.6387 17.2695 63.6387 16.6523ZM73.4766 12.293H76.8633V17.3379L80.6309 12.293H82.3242L79.5469 16.0312L83.1855 21.0059H79.3711L77.4258 18.2695L76.8633 19.043V21H73.4766V12.293ZM86.2148 16.8164L83.3906 12.293H87.2168L88.916 15.0117L90.6504 12.293H92.1797L89.6367 16.1719L92.6602 21L88.834 21.0059L86.9238 17.959L84.9492 21.0059H83.4141L86.2148 16.8164Z" fill="white"/>
<path d="M13 0L0 18L1.5 19.5H9.5V21.5V33H12L27 15L25.5 11.5H16.5V0H13Z" fill="url(#paint0_linear_289_2)"/>
<defs>
<linearGradient id="paint0_linear_289_2" x1="13.5" y1="0" x2="13.5" y2="33" gradientUnits="userSpaceOnUse">
<stop stop-color="#D5224E"/>
<stop offset="1" stop-color="#FF003F"/>
</linearGradient>
</defs>
</svg>
