<svg width="22" height="18" viewBox="0 0 22 18" fill="none" xmlns="http://www.w3.org/2000/svg">
<mask id="mask0_40_197" style="mask-type:luminance" maskUnits="userSpaceOnUse" x="5" y="3" width="12" height="12">
<path d="M16.0934 3.4209H5.9248V14.557H16.0934V3.4209Z" fill="white"/>
</mask>
<g mask="url(#mask0_40_197)">
<path d="M6.53716 6.81396C6.14687 7.54017 5.9248 8.3718 5.9248 9.25613C5.9248 10.1405 6.14687 10.9729 6.53716 11.6991V6.81396Z" fill="#484B51"/>
<path d="M11.0093 4.12451C10.5968 4.12451 10.1966 4.17569 9.8125 4.26858V5.07615C10.1928 4.96612 10.5938 4.90573 11.0093 4.90573C13.3894 4.90573 15.3192 6.84739 15.3192 9.24299C15.3192 10.3218 14.9267 11.3085 14.2789 12.0674L14.1561 12.5101L13.8842 13.4899C15.2185 12.5651 16.0943 11.0142 16.0943 9.25732C16.0936 6.42185 13.8174 4.12451 11.0093 4.12451Z" fill="#484B51"/>
<path d="M9.8125 11.9195H13.7122H13.7974C14.4574 11.2235 14.8639 10.2811 14.8639 9.2432C14.8639 7.10093 13.1385 5.36475 11.0096 5.36475C10.5916 5.36475 10.1898 5.43307 9.81275 5.55615V11.9195H9.8125Z" fill="#484B51"/>
<path d="M9.35123 3.4209H6.4502L6.998 4.5688V13.4099L6.4502 14.557H13.1079L13.7117 12.3846H9.35123V3.4209Z" fill="#484B51"/>
</g>
</svg>
