<svg width="30" height="30" viewBox="0 0 30 30" fill="none" xmlns="http://www.w3.org/2000/svg">
<path d="M14.9922 0C23.2601 9.93242e-05 29.9902 6.72715 29.9902 14.9961C29.9902 23.263 23.2591 29.9882 14.9922 29.9883C6.72522 29.9883 4.96445e-05 23.2641 0 14.9961C0 6.72709 6.72419 0 14.9922 0ZM14.9922 1.07617C7.31819 1.07617 1.07617 7.32009 1.07617 14.9961C1.07622 22.6721 7.31822 28.9121 14.9922 28.9121C22.6681 28.912 28.914 22.672 28.9141 14.9961C28.9141 7.32015 22.6681 1.07627 14.9922 1.07617ZM9.86133 9.83984C9.86142 8.40794 11.0863 7.65426 12.3652 8.36523L21.752 13.5762C22.3729 13.9242 22.7314 14.4421 22.7314 14.9971C22.7314 15.552 22.3729 16.0691 21.752 16.4131L12.3672 21.626C12.0273 21.8149 11.6892 21.9111 11.3652 21.9111C10.4664 21.9111 9.86149 21.2022 9.86133 20.1494V9.83984ZM11.3662 9.15625C10.9953 9.15625 10.9385 9.58383 10.9385 9.83984V20.1484C10.9385 20.4065 10.9954 20.834 11.3662 20.834C11.5041 20.8339 11.6678 20.7815 11.8457 20.6836L21.2295 15.4707C21.4901 15.3258 21.6542 15.143 21.6553 14.9961C21.6553 14.8471 21.4914 14.6626 21.2295 14.5166L11.8457 9.30566C11.6689 9.20884 11.5051 9.1563 11.3662 9.15625Z" fill="white"/>
<path d="M14.9922 0C23.2601 9.93242e-05 29.9902 6.72715 29.9902 14.9961C29.9902 23.263 23.2591 29.9882 14.9922 29.9883C6.72522 29.9883 4.96445e-05 23.2641 0 14.9961C0 6.72709 6.72419 0 14.9922 0ZM14.9922 1.07617C7.31819 1.07617 1.07617 7.32009 1.07617 14.9961C1.07622 22.6721 7.31822 28.9121 14.9922 28.9121C22.6681 28.912 28.914 22.672 28.9141 14.9961C28.9141 7.32015 22.6681 1.07627 14.9922 1.07617ZM9.86133 9.83984C9.86142 8.40794 11.0863 7.65426 12.3652 8.36523L21.752 13.5762C22.3729 13.9242 22.7314 14.4421 22.7314 14.9971C22.7314 15.552 22.3729 16.0691 21.752 16.4131L12.3672 21.626C12.0273 21.8149 11.6892 21.9111 11.3652 21.9111C10.4664 21.9111 9.86149 21.2022 9.86133 20.1494V9.83984ZM11.3662 9.15625C10.9953 9.15625 10.9385 9.58383 10.9385 9.83984V20.1484C10.9385 20.4065 10.9954 20.834 11.3662 20.834C11.5041 20.8339 11.6678 20.7815 11.8457 20.6836L21.2295 15.4707C21.4901 15.3258 21.6542 15.143 21.6553 14.9961C21.6553 14.8471 21.4914 14.6626 21.2295 14.5166L11.8457 9.30566C11.6689 9.20884 11.5051 9.1563 11.3662 9.15625Z" stroke="black"/>
</svg>
