<svg width="15" height="15" viewBox="0 0 15 15" fill="none" xmlns="http://www.w3.org/2000/svg">
<path d="M7.49985 1.25C6.28765 1.2523 5.10227 1.60707 4.08812 2.27109C3.07396 2.9351 2.27478 3.87971 1.78794 4.98986C1.30109 6.1 1.14758 7.32776 1.34611 8.5236C1.54465 9.71943 2.08665 10.8317 2.9061 11.725C3.49136 12.3594 4.20169 12.8657 4.99231 13.212C5.78293 13.5583 6.63671 13.7371 7.49985 13.7371C8.36298 13.7371 9.21676 13.5583 10.0074 13.212C10.798 12.8657 11.5083 12.3594 12.0936 11.725C12.913 10.8317 13.455 9.71943 13.6536 8.5236C13.8521 7.32776 13.6986 6.1 13.2118 4.98986C12.7249 3.87971 11.9257 2.9351 10.9116 2.27109C9.89742 1.60707 8.71205 1.2523 7.49985 1.25ZM7.49985 12.5C6.20514 12.498 4.96167 11.9939 4.0311 11.0938C4.31362 10.406 4.79424 9.81769 5.41188 9.40368C6.02952 8.98967 6.75629 8.76863 7.49985 8.76863C8.2434 8.76863 8.97018 8.98967 9.58781 9.40368C10.2055 9.81769 10.6861 10.406 10.9686 11.0938C10.038 11.9939 8.79456 12.498 7.49985 12.5ZM6.24985 6.25C6.24985 6.00277 6.32316 5.7611 6.46051 5.55554C6.59786 5.34998 6.79309 5.18976 7.02149 5.09515C7.2499 5.00054 7.50123 4.97579 7.74371 5.02402C7.98619 5.07225 8.20891 5.1913 8.38373 5.36612C8.55855 5.54093 8.6776 5.76366 8.72583 6.00614C8.77406 6.24861 8.74931 6.49995 8.6547 6.72835C8.56009 6.95676 8.39987 7.15199 8.19431 7.28934C7.98875 7.42669 7.74707 7.5 7.49985 7.5C7.16833 7.5 6.85038 7.3683 6.61596 7.13388C6.38154 6.89946 6.24985 6.58152 6.24985 6.25ZM11.8186 10C11.2602 9.04485 10.4007 8.30189 9.37485 7.8875C9.69308 7.52666 9.90043 7.08166 9.97202 6.6059C10.0436 6.13014 9.97639 5.64382 9.77844 5.20531C9.58049 4.7668 9.26021 4.39472 8.85604 4.13373C8.45187 3.87273 7.98097 3.73391 7.49985 3.73391C7.01873 3.73391 6.54783 3.87273 6.14365 4.13373C5.73948 4.39472 5.4192 4.7668 5.22125 5.20531C5.0233 5.64382 4.95609 6.13014 5.02768 6.6059C5.09927 7.08166 5.30662 7.52666 5.62485 7.8875C4.59897 8.30189 3.73952 9.04485 3.1811 10C2.73606 9.24194 2.50092 8.37904 2.49985 7.5C2.49985 6.17392 3.02663 4.90215 3.96431 3.96447C4.902 3.02678 6.17376 2.5 7.49985 2.5C8.82593 2.5 10.0977 3.02678 11.0354 3.96447C11.9731 4.90215 12.4998 6.17392 12.4998 7.5C12.4988 8.37904 12.2636 9.24194 11.8186 10Z" fill="#999CA3"/>
</svg>
