<svg width="242" height="32" viewBox="0 0 242 32" fill="none" xmlns="http://www.w3.org/2000/svg">
<path fill-rule="evenodd" clip-rule="evenodd" d="M241.442 15.4416V11.3702V2.49658H224.421L222.293 4.79329V16.9032H227.613V20.6614H229.953L232.506 17.9471H238.889L241.442 15.4416ZM228.889 15.2329H225.485C225.251 15.2329 225.059 15.045 225.059 14.8153V4.58457C225.059 4.3549 225.251 4.16699 225.485 4.16699H239.102C239.336 4.16699 239.527 4.3549 239.527 4.58457V12.5186C239.527 12.6335 239.485 12.7379 239.405 12.8162L237.065 15.1129C236.985 15.1912 236.873 15.2329 236.761 15.2329H232.852L229.554 17.4566C229.485 17.5035 229.4 17.5296 229.315 17.5296C229.245 17.5296 229.182 17.514 229.118 17.4827C228.974 17.4096 228.889 17.2686 228.889 17.112V15.2329Z" fill="white"/>
<path d="M235.272 11.5791V7.40332H233.57V11.5791H235.272ZM231.017 11.5791V7.40332H229.315V11.5791H231.017Z" fill="white"/>
<path d="M164.092 0H149.472C146.608 0 144.282 2.36726 144.282 5.28081V12.7137C144.282 15.6327 146.608 17.9945 149.472 17.9945H164.087C166.956 17.9945 169.277 15.6272 169.277 12.7137V5.28081C169.282 2.36726 166.956 0 164.092 0ZM160.578 9.36419L153.74 12.6806C153.555 12.7689 153.349 12.6364 153.349 12.4267V5.5843C153.349 5.37462 153.566 5.24218 153.745 5.33599L160.584 8.86205C160.79 8.96689 160.784 9.26487 160.578 9.36419Z" fill="#FF1313"/>
<path d="M163.779 12.0791L173.779 22.0791H167.779L163.779 26.0791V12.0791Z" fill="white"/>
<line x1="167.172" y1="20.522" x2="171.172" y2="30.522" stroke="white" stroke-width="3"/>
<path fill-rule="evenodd" clip-rule="evenodd" d="M89.696 4.24607C88.923 4.56807 88.092 4.78307 87.221 4.88107C88.111 4.38107 88.794 3.58907 89.116 2.64707C88.282 3.10907 87.36 3.44507 86.378 3.62707C85.593 2.84107 84.472 2.35107 83.233 2.35107C80.853 2.35107 78.922 4.16007 78.922 6.39007C78.922 6.70707 78.96 7.01607 79.034 7.31107C75.452 7.14207 72.276 5.53407 70.15 3.09107C69.779 3.68807 69.567 4.38107 69.567 5.12207C69.567 6.52207 70.328 7.76007 71.484 8.48407C70.778 8.46207 70.114 8.28107 69.532 7.97807C69.532 7.99607 69.532 8.01107 69.532 8.03007C69.532 9.98707 71.017 11.6191 72.989 11.9901C72.628 12.0821 72.246 12.1301 71.854 12.1301C71.576 12.1301 71.306 12.1061 71.043 12.0601C71.591 13.6631 73.183 14.8321 75.069 14.8651C73.594 15.9481 71.736 16.5931 69.716 16.5931C69.368 16.5931 69.025 16.5741 68.688 16.5371C70.595 17.6821 72.861 18.3521 75.295 18.3521C83.223 18.3521 87.558 12.1961 87.558 6.85907C87.558 6.68307 87.553 6.51007 87.545 6.33607C88.387 5.76607 89.118 5.05507 89.696 4.24607Z" fill="white"/>
<path fill-rule="evenodd" clip-rule="evenodd" d="M6.136 18.989H2.045V9.495H0V6.222H2.045V4.258C2.045 1.589 3.2 0 6.478 0H9.208V3.273H7.503C6.225 3.273 6.141 3.731 6.141 4.585L6.136 6.222H9.228L8.866 9.495H6.136V18.989Z" fill="white"/>
</svg>
