<svg width="60" height="9" viewBox="0 0 60 9" fill="none" xmlns="http://www.w3.org/2000/svg">
<path d="M2.48438 1.47656H0V0.134766H8.35547V1.47656H5.87109V8.84766H2.48438V1.47656ZM9.62695 0.140625H14.6484C15.2969 0.140625 15.8633 0.208984 16.3477 0.345703C16.8359 0.482422 17.2422 0.673828 17.5664 0.919922C17.8945 1.16602 18.1406 1.46094 18.3047 1.80469C18.4688 2.14844 18.5508 2.52734 18.5508 2.94141C18.5508 3.45312 18.4297 3.9082 18.1875 4.30664C17.9453 4.70117 17.5859 5.01562 17.1094 5.25L18.9375 8.85352H15.1113L13.7285 5.68945H13.0137V8.84766H9.62695V0.140625ZM13.2188 4.62891C13.4961 4.62891 13.7441 4.58984 13.9629 4.51172C14.1816 4.43359 14.3672 4.32422 14.5195 4.18359C14.6719 4.03906 14.7891 3.86914 14.8711 3.67383C14.9531 3.47461 14.9941 3.25781 14.9941 3.02344C14.9941 2.78906 14.9531 2.57422 14.8711 2.37891C14.7891 2.17969 14.6719 2.00977 14.5195 1.86914C14.3672 1.72461 14.1816 1.61328 13.9629 1.53516C13.7441 1.45703 13.4961 1.41797 13.2188 1.41797H13.0195L13.0137 4.62891H13.2188ZM22.9688 2.33789L21.9609 0.140625H25.5293L29.7949 8.85352H25.9688L25.3242 7.45898H21.8906L21.252 8.85352H19.7695L22.9688 2.33789ZM24.709 6.11719L23.6074 3.72656L22.5117 6.11719H24.709ZM30.4805 4.5C30.4805 4.08594 30.5332 3.6875 30.6387 3.30469C30.748 2.91797 30.9062 2.55859 31.1133 2.22656C31.3203 1.89453 31.5742 1.5918 31.875 1.31836C32.1758 1.04492 32.5176 0.810547 32.9004 0.615234C33.2871 0.419922 33.7129 0.269531 34.1777 0.164062C34.6426 0.0546875 35.1426 0 35.6777 0C36.0215 0 36.3496 0.0214844 36.6621 0.0644531C36.9785 0.107422 37.2754 0.167969 37.5527 0.246094C37.8301 0.320313 38.0859 0.408203 38.3203 0.509766C38.5586 0.607422 38.7734 0.710937 38.9648 0.820312L38.4609 1.80469C38.2422 1.69922 37.9922 1.61133 37.7109 1.54102C37.4336 1.4668 37.1445 1.42969 36.8438 1.42969C36.4414 1.42969 36.0684 1.50195 35.7246 1.64648C35.3809 1.79102 35.084 1.99609 34.834 2.26172C34.584 2.52734 34.3867 2.84961 34.2422 3.22852C34.1016 3.60352 34.0312 4.02539 34.0312 4.49414C34.0312 4.95898 34.1016 5.38086 34.2422 5.75977C34.3828 6.13477 34.5762 6.45703 34.8223 6.72656C35.0723 6.99219 35.3672 7.19922 35.707 7.34766C36.0508 7.49219 36.4219 7.56445 36.8203 7.56445C37.1016 7.56445 37.3828 7.53125 37.6641 7.46484C37.9453 7.39453 38.2031 7.30273 38.4375 7.18945L38.9414 8.17383C38.75 8.28711 38.5371 8.39258 38.3027 8.49023C38.0684 8.58789 37.8145 8.67578 37.541 8.75391C37.2676 8.82812 36.9746 8.88672 36.6621 8.92969C36.3496 8.97266 36.0215 8.99414 35.6777 8.99414C34.877 8.99414 34.1543 8.87695 33.5098 8.64258C32.8691 8.4043 32.3242 8.08203 31.875 7.67578C31.4258 7.26562 31.0801 6.78906 30.8379 6.24609C30.5996 5.69922 30.4805 5.11719 30.4805 4.5ZM40.3184 0.140625H43.7051V5.18555L47.4727 0.140625H49.166L46.3887 3.87891L50.0273 8.85352H46.2129L44.2676 6.11719L43.7051 6.89062V8.84766H40.3184V0.140625ZM53.0566 4.66406L50.2324 0.140625H54.0586L55.7578 2.85938L57.4922 0.140625H59.0215L56.4785 4.01953L59.502 8.84766L55.6758 8.85352L53.7656 5.80664L51.791 8.85352H50.2559L53.0566 4.66406Z" fill="white"/>
</svg>
