<svg width="17" height="17" viewBox="0 0 17 17" fill="none" xmlns="http://www.w3.org/2000/svg">
<g filter="url(#filter0_ddd_85_1498)">
<path d="M5.06121 6.18325C5.68469 6.80743 6.51498 7.18214 7.39565 7.23678C8.27632 7.29141 9.14658 7.02221 9.84248 6.47988L12.2369 8.87364C12.3219 8.95564 12.4356 9.00101 12.5537 8.99998C12.6717 8.99896 12.7846 8.95162 12.8681 8.86816C12.9516 8.78471 12.999 8.67181 13 8.55379C13.001 8.43577 12.9556 8.32206 12.8736 8.23717L10.4791 5.84341C11.0457 5.11653 11.3136 4.20097 11.2281 3.28344C11.1426 2.36592 10.7103 1.51554 10.0192 0.905747C9.32813 0.295949 8.4304 -0.0273394 7.5091 0.00181324C6.5878 0.0309659 5.71232 0.410364 5.06121 1.06263C4.72477 1.3988 4.45789 1.79793 4.27581 2.23724C4.09372 2.67655 4 3.14741 4 3.62294C4 4.09847 4.09372 4.56934 4.27581 5.00864C4.45789 5.44795 4.72477 5.84709 5.06121 6.18325ZM5.69787 1.70001C6.14298 1.25504 6.72865 0.978117 7.3551 0.91643C7.98154 0.854743 8.61 1.0121 9.1334 1.36171C9.6568 1.71131 10.0428 2.23151 10.2255 2.8337C10.4083 3.43588 10.3765 4.08279 10.1357 4.6642C9.89482 5.2456 9.45978 5.72554 8.90465 6.02223C8.34953 6.31893 7.70868 6.41403 7.09129 6.29133C6.47389 6.16863 5.91815 5.83572 5.51876 5.34932C5.11936 4.86292 4.90101 4.25313 4.90092 3.62384C4.89968 3.26625 4.96949 2.91197 5.1063 2.58157C5.24311 2.25116 5.44419 1.95121 5.69787 1.69911V1.70001Z" fill="#797C83"/>
</g>
<defs>
<filter id="filter0_ddd_85_1498" x="0" y="0" width="17" height="17" filterUnits="userSpaceOnUse" color-interpolation-filters="sRGB">
<feFlood flood-opacity="0" result="BackgroundImageFix"/>
<feColorMatrix in="SourceAlpha" type="matrix" values="0 0 0 0 0 0 0 0 0 0 0 0 0 0 0 0 0 0 127 0" result="hardAlpha"/>
<feOffset dy="4"/>
<feGaussianBlur stdDeviation="2"/>
<feComposite in2="hardAlpha" operator="out"/>
<feColorMatrix type="matrix" values="0 0 0 0 0 0 0 0 0 0 0 0 0 0 0 0 0 0 0.25 0"/>
<feBlend mode="normal" in2="BackgroundImageFix" result="effect1_dropShadow_85_1498"/>
<feColorMatrix in="SourceAlpha" type="matrix" values="0 0 0 0 0 0 0 0 0 0 0 0 0 0 0 0 0 0 127 0" result="hardAlpha"/>
<feOffset dy="4"/>
<feGaussianBlur stdDeviation="2"/>
<feComposite in2="hardAlpha" operator="out"/>
<feColorMatrix type="matrix" values="0 0 0 0 0 0 0 0 0 0 0 0 0 0 0 0 0 0 0.25 0"/>
<feBlend mode="normal" in2="effect1_dropShadow_85_1498" result="effect2_dropShadow_85_1498"/>
<feColorMatrix in="SourceAlpha" type="matrix" values="0 0 0 0 0 0 0 0 0 0 0 0 0 0 0 0 0 0 127 0" result="hardAlpha"/>
<feOffset dy="4"/>
<feGaussianBlur stdDeviation="2"/>
<feComposite in2="hardAlpha" operator="out"/>
<feColorMatrix type="matrix" values="0 0 0 0 0 0 0 0 0 0 0 0 0 0 0 0 0 0 0.25 0"/>
<feBlend mode="normal" in2="effect2_dropShadow_85_1498" result="effect3_dropShadow_85_1498"/>
<feBlend mode="normal" in="SourceGraphic" in2="effect3_dropShadow_85_1498" result="shape"/>
</filter>
</defs>
</svg>
