<svg width="22" height="22" viewBox="0 0 22 22" fill="none" xmlns="http://www.w3.org/2000/svg">
<g filter="url(#filter0_d_40_773)">
<path d="M5.65077 9.61839C6.62063 10.5893 7.91219 11.1722 9.28212 11.2572C10.6521 11.3422 12.0058 10.9234 13.0883 10.0798L16.813 13.8034C16.9451 13.931 17.122 14.0016 17.3057 14C17.4893 13.9984 17.665 13.9247 17.7949 13.7949C17.9247 13.6651 17.9984 13.4895 18 13.3059C18.0016 13.1223 17.931 12.9454 17.8034 12.8134L14.0787 9.08974C14.96 7.95904 15.3766 6.53484 15.2437 5.10758C15.1107 3.68032 14.4382 2.35751 13.3632 1.40894C12.2882 0.460365 10.8917 -0.0425279 9.4586 0.00282059C8.02546 0.0481691 6.66361 0.638344 5.65077 1.65298C5.12743 2.1759 4.71228 2.79678 4.42903 3.48015C4.14579 4.16352 4 4.89598 4 5.63569C4 6.3754 4.14579 7.10786 4.42903 7.79122C4.71228 8.47459 5.12743 9.09547 5.65077 9.61839ZM6.64113 2.64446C7.33353 1.95228 8.24457 1.52152 9.21904 1.42556C10.1935 1.3296 11.1711 1.57439 11.9853 2.11821C12.7995 2.66203 13.3998 3.47124 13.6841 4.40798C13.9684 5.34471 13.919 6.35101 13.5444 7.25542C13.1697 8.15983 12.493 8.90639 11.6295 9.36792C10.7659 9.82945 9.76906 9.97738 8.80867 9.78651C7.84828 9.59564 6.9838 9.07778 6.36251 8.32117C5.74122 7.56455 5.40157 6.61598 5.40142 5.63709C5.3995 5.08083 5.5081 4.52974 5.72091 4.01577C5.93372 3.50181 6.24651 3.03521 6.64113 2.64306V2.64446Z" fill="#797C83"/>
</g>
<defs>
<filter id="filter0_d_40_773" x="0" y="0" width="22" height="22" filterUnits="userSpaceOnUse" color-interpolation-filters="sRGB">
<feFlood flood-opacity="0" result="BackgroundImageFix"/>
<feColorMatrix in="SourceAlpha" type="matrix" values="0 0 0 0 0 0 0 0 0 0 0 0 0 0 0 0 0 0 127 0" result="hardAlpha"/>
<feOffset dy="4"/>
<feGaussianBlur stdDeviation="2"/>
<feComposite in2="hardAlpha" operator="out"/>
<feColorMatrix type="matrix" values="0 0 0 0 0 0 0 0 0 0 0 0 0 0 0 0 0 0 0.25 0"/>
<feBlend mode="normal" in2="BackgroundImageFix" result="effect1_dropShadow_40_773"/>
<feBlend mode="normal" in="SourceGraphic" in2="effect1_dropShadow_40_773" result="shape"/>
</filter>
</defs>
</svg>
